# xmcd
#
# Track frame offsets:
#	150
#	15605
#	25212
#	38935
#	50937
#	64732
#	82197
#	97020
#	112779
#	129415
#
# Disc length: 1924 seconds
#
# Revision: 0
# Processed by: cddbd v1.4PL0 Copyright (c) Steve Scherf et al.
# Submitted via: dBpowerAMP V4.0
#
DISCID=8407820a
DTITLE=Wilf Oram and Glenn Blackwood - Dinsmore
DYEAR=1998
DGENRE=Country
TTITLE0=I Don't Know Why
TTITLE1=That's Alright Mamma
TTITLE2=Take These Chains
TTITLE3=Mountain Of Love
TTITLE4=You're The Nearest Thing To Heaven
TTITLE5=Send Me The Pillow
TTITLE6=Memphis
TTITLE7=I Don't Believe I'll Fall In Love
TTITLE8=You Can Have Her
TTITLE9=Be Nobodys Darlin But Mine
EXTD=This is a CD a couple of friends of mine recorded from Gambo, Newfoundland.\nThe name of the album is  Dinsmore\n\nArtists are - " Wilf Oram and Glenn Blackwood"\n\n\n\nTrack 01 - I Don't Know Why      Artist - 'Glenn Blackwood'     Album - 'Dinsmo
EXTD=re'\nTrack 02 - That's Alright Mamma     Artist - 'Wilf Oram'     Album - 'Dinsmore'\nTrack 03 - Take These Chains     Artist - 'Wilf Oram'     Album - 'Dinsmore'\nTrack 04 - Mountain of Love     Artist - 'Glenn Blackwood'     Album - 'Dinsmore'\nT
EXTD=rack 05 - You're The Nearest Thing To Heaven     Artist - 'Wilf Oram'     Album - 'Dinsmore'\nTrack 06 - Send Me The Pillow     Artist - 'Wilf Oram'     Album - 'Dinsmore'\nTrack 07 - Memphis     Artist - 'Wilf Oram'     Album - 'Dinsmore'\nTrack 0
EXTD=8 - I Don't Believe I'll Fall in Love     Artist - 'Wilf Oram'     Album - 'Dinsmore'\nTrack 09 - You Can Have Her     Artist - 'Glenn Blackwood'     Album - 'Dinsmore'\nTrack 10 - Be Nobodys Darlin But Mine     Artist - 'Wilf Oram'     Album - 'Di
EXTD=nsmore'\n\n\nMy Name is Lyle Adams\n
EXTT0=
EXTT1=
EXTT2=
EXTT3=
EXTT4=
EXTT5=
EXTT6=
EXTT7=
EXTT8=
EXTT9=
PLAYORDER=
